<svg xmlns="http://www.w3.org/2000/svg" viewBox="0 0 64 64" role="img" aria-label="Na k·viku">
  <defs>
    <linearGradient id="g" x1="0" y1="0" x2="1" y2="1">
      <stop offset="0" stop-color="#C58A2A"/>
      <stop offset="1" stop-color="#E6B85A"/>
    </linearGradient>
  </defs>
  <rect x="6" y="6" width="52" height="52" rx="16" fill="url(#g)"/>
  <path d="M22 40c0 6 5 10 10 10s10-4 10-10V24H22v16Z" fill="#fff" opacity=".95"/>
  <path d="M42 28h4c4 0 6 3 6 6s-2 6-6 6h-4" fill="none" stroke="#fff" stroke-width="4" stroke-linecap="round"/>
  <path d="M26 18c0 3 3 3 3 6" fill="none" stroke="#fff" stroke-width="3" stroke-linecap="round" opacity=".9"/>
  <path d="M32 16c0 3 3 3 3 6" fill="none" stroke="#fff" stroke-width="3" stroke-linecap="round" opacity=".9"/>
  <path d="M38 18c0 3 3 3 3 6" fill="none" stroke="#fff" stroke-width="3" stroke-linecap="round" opacity=".9"/>
</svg>

